<?xml version="1.0" encoding="utf-8"?>
<svg viewBox="206 129.256 579.503 346.916" xmlns="http://www.w3.org/2000/svg">
  <defs>
    <clipPath clipPathUnits="userSpaceOnUse" id="clipPath178">
      <path d="m 3966.46,1889.37 h 1638.9 v 180.918 h -1638.9 z" id="path176"/>
    </clipPath>
    <clipPath clipPathUnits="userSpaceOnUse" id="clipPath242">
      <path d="m 4068.72,2901.5 c -12.62,-26.99 -0.97,-59.11 26.03,-71.72 26.99,-12.62 59.1,-0.97 71.72,26.02 12.62,26.99 0.97,59.1 -26.02,71.73 -26.99,12.61 -59.1,0.96 -71.73,-26.03" id="path240"/>
    </clipPath>
    <clipPath clipPathUnits="userSpaceOnUse" id="clipPath306">
      <path d="m 5092.25,2093.79 c -19.1,-23.31 -15.67,-57.69 7.65,-76.78 23.31,-19.09 57.7,-15.67 76.79,7.64 19.09,23.33 15.67,57.7 -7.65,76.79 -23.32,19.1 -57.69,15.68 -76.79,-7.65" id="path304"/>
    </clipPath>
    <clipPath clipPathUnits="userSpaceOnUse" id="clipPath424">
      <path d="m 4198.27,1371.49 98.72,255.16 c 4.71,12.16 21.93,12.16 26.63,0 l 98.72,-255.16 h -224.07" id="path422"/>
    </clipPath>
    <clipPath clipPathUnits="userSpaceOnUse" id="clipPath440">
      <path d="m 5631.84,1370.7 98.73,255.16 c 4.7,12.16 21.91,12.16 26.62,0 l 98.73,-255.16 h -224.08" id="path438"/>
    </clipPath>
  </defs>
  <g id="g8" transform="matrix(1.3333330154418945, 0, 0, -1.3333330154418945, 238.6753387451172, 804.2191162109376)">
    <g id="g10" transform="scale(0.1)">
      <path d="M 3729.159 3244.322 C 3767.591 3365.052 3776.566 3493.522 3749.01 3617.022 C 3705.905 3810.212 3567.047 4044.092 3166.31 4145.022 C 2407.653 4336.092 2144.227 4894.852 1434.566 4716.902 C 1434.566 4716.902 1053.721 4649.822 873.481 4039.022 C 693.241 3428.212 -13.015 3417.822 230.159 2885.982 C 269.91 2799.052 376.919 2704.222 530.572 2614.652 L 3408.514 2624.032 C 3607.407 2855.812 3669.31 3056.302 3729.159 3244.322" style="fill: rgb(226, 221, 241); fill-opacity: 1; fill-rule: nonzero; stroke: none;" id="path128"/>
      <path d="M 3050.078 3681.132 L 2942.099 3681.132 L 2942.099 3795.622 C 2942.099 3853.092 2900.8 3901.112 2845.418 3913.592 L 2845.418 4055.682 L 2805.676 4055.682 L 2805.676 3916.292 C 2741.937 3910.722 2691.961 3858.862 2691.961 3795.622 L 2691.961 3677.772 L 2584.55 3677.772 L 2584.55 3546.442 L 2577.318 3546.442 L 2577.318 3302.372 L 2382.077 3303.722 L 2382.077 3595.442 L 2158.382 3595.442 L 2158.382 3381.662 L 2001.418 3381.662 L 2001.418 3173.982 L 1811.717 3173.982 L 1811.717 2624.262 L 2441.947 2624.262 L 2441.947 2624.342 L 2577.318 2624.342 L 2577.318 2624.262 L 3367.587 2624.262 L 3367.587 3317.482 L 3049.799 3317.482 L 3050.078 3681.132" style="fill: rgb(203, 196, 231); fill-opacity: 1; fill-rule: nonzero; stroke: none;" id="path130"/>
      <path d="M 821.999 3379.002 L 821.999 3652.272 L 927.687 3652.272 L 927.687 3798.432 L 967.428 3798.432 L 967.428 3652.272 L 1064.801 3652.272 L 1064.801 3379.002 L 1174.049 3379.002 L 1174.049 3215.282 L 1348.16 3215.282 L 1348.16 3772.992 L 1711.662 3772.992 L 1711.662 2624.262 L 1474.792 2624.262 L 1372.746 2624.262 L 1115.974 2624.262 L 997.389 2624.262 L 687.546 2624.262 L 687.546 3379.002 L 821.999 3379.002" style="fill: rgb(203, 196, 231); fill-opacity: 1; fill-rule: nonzero; stroke: none;" id="path132"/>
      <path d="M 2807.895 2627.052 L 1151.155 2625.792 C 1088.407 2625.742 1037.492 2675.002 1037.44 2735.822 L 2921.424 2737.252 C 2921.465 2676.432 2870.643 2627.082 2807.895 2627.052" style="fill: rgb(63, 79, 170); fill-opacity: 1; fill-rule: nonzero; stroke: none;" id="path134"/>
      <path d="M 2807.864 2664.962 L 1151.124 2663.712 C 1102.139 2663.672 1060.499 2693.732 1044.507 2735.832 L 1037.44 2735.822 C 1037.492 2675.002 1088.407 2625.742 1151.155 2625.792 L 2807.895 2627.052 C 2870.643 2627.082 2921.465 2676.432 2921.424 2737.252 L 2914.357 2737.252 C 2898.437 2695.122 2856.839 2664.992 2807.864 2664.962" style="fill: rgb(75, 91, 178); fill-opacity: 1; fill-rule: nonzero; stroke: none;" id="path136"/>
      <path d="M 2086.492 2699.752 L 1872.444 2699.592 C 1851.438 2699.572 1834.384 2716.072 1834.374 2736.432 L 2124.49 2736.642 C 2124.501 2716.282 2107.498 2699.772 2086.492 2699.752" style="fill: rgb(54, 65, 156); fill-opacity: 1; fill-rule: nonzero; stroke: none;" id="path138"/>
      <path d="M 2824.464 2737.182 L 1134.4 2735.892 L 1133.595 3724.652 C 1133.564 3781.372 1180.961 3827.392 1239.48 3827.442 L 2717.62 3828.552 C 2776.149 3828.602 2823.618 3782.652 2823.669 3725.932 L 2824.464 2737.182" style="fill: rgb(75, 91, 178); fill-opacity: 1; fill-rule: nonzero; stroke: none;" id="path140"/>
      <path d="M 2736.376 2822.532 L 1222.343 2821.382 L 1221.6 3742.012 L 2735.644 3743.152 L 2736.376 2822.532" style="fill: rgb(60, 52, 122); fill-opacity: 1; fill-rule: nonzero; stroke: none;" id="path142"/>
      <path d="M 2736.376 2822.532 L 1222.343 2821.382 L 1222.271 2909.392 L 2736.304 2910.532 L 2736.376 2822.532" style="fill: rgb(42, 37, 75); fill-opacity: 1; fill-rule: nonzero; stroke: none;" id="path144"/>
      <path d="M 2735.675 3699.472 L 1221.642 3698.312 L 1221.6 3742.012 L 2735.644 3743.152 L 2735.675 3699.472" style="fill: rgb(42, 37, 75); fill-opacity: 1; fill-rule: nonzero; stroke: none;" id="path146"/>
      <path d="M 1223.437 2821.382 L 1222.343 2821.382 L 1223.447 2821.382 L 1223.437 2821.382" style="fill: rgb(75, 91, 178); fill-opacity: 1; fill-rule: nonzero; stroke: none;" id="path148"/>
      <path d="M 1222.343 2821.382 L 1222.003 3252.582 L 1681.505 3698.672 L 2127.472 3699.002 L 1314.165 2909.462 L 1222.271 2909.392 L 1222.343 2821.382" style="fill: rgb(61, 57, 138); fill-opacity: 1; fill-rule: nonzero; stroke: none;" id="path150"/>
      <path d="M 1222.343 2821.382 L 1222.271 2909.392 L 1314.165 2909.462 L 1223.437 2821.382 L 1222.343 2821.382" style="fill: rgb(51, 46, 102); fill-opacity: 1; fill-rule: nonzero; stroke: none;" id="path152"/>
      <path d="M 1681.505 3698.672 L 1726.539 3742.392 L 2172.506 3742.722 L 2127.472 3699.002 L 1681.505 3698.672" style="fill: rgb(51, 46, 102); fill-opacity: 1; fill-rule: nonzero; stroke: none;" id="path154"/>
      <path d="M 1417.831 2821.492 L 1417.873 2821.532 L 1621.769 2821.682 L 1417.831 2821.492 M 2578.081 3743.032 L 2590.472 3743.042 L 2578.081 3743.032" style="fill: rgb(75, 91, 178); fill-opacity: 1; fill-rule: nonzero; stroke: none;" id="path156"/>
      <path d="M 1508.601 2909.602 L 2321.918 3699.152 L 2545.438 3699.322 L 1732.131 2909.772 L 1508.601 2909.602" style="fill: rgb(61, 57, 138); fill-opacity: 1; fill-rule: nonzero; stroke: none;" id="path158"/>
      <path d="M 1417.873 2821.532 L 1508.601 2909.602 L 1732.131 2909.772 L 1641.413 2821.702 L 1621.769 2821.682 L 1417.873 2821.532" style="fill: rgb(51, 46, 102); fill-opacity: 1; fill-rule: nonzero; stroke: none;" id="path160"/>
      <path d="M 2321.918 3699.152 L 2366.911 3742.832 L 2578.081 3743.032 L 2590.472 3743.042 L 2545.438 3699.322 L 2321.918 3699.152" style="fill: rgb(51, 46, 102); fill-opacity: 1; fill-rule: nonzero; stroke: none;" id="path162"/>
      <path d="M 2550.462 2822.392 L 2558.293 2822.402 L 2550.462 2822.392 M 2736.242 2995.142 L 2735.974 3322.002 L 2735.984 3322.012 L 2736.242 2995.152 L 2736.242 2995.142" style="fill: rgb(75, 91, 178); fill-opacity: 1; fill-rule: nonzero; stroke: none;" id="path164"/>
      <path d="M 2295.878 2910.202 L 2735.984 3322.012 L 2736.242 2995.142 L 2649.011 2910.472 L 2295.878 2910.202" style="fill: rgb(61, 57, 138); fill-opacity: 1; fill-rule: nonzero; stroke: none;" id="path166"/>
      <path d="M 2201.827 2822.192 L 2295.878 2910.202 L 2649.011 2910.472 L 2558.293 2822.402 L 2550.462 2822.392 L 2201.827 2822.192" style="fill: rgb(51, 46, 102); fill-opacity: 1; fill-rule: nonzero; stroke: none;" id="path168"/>
      <path d="M 2824.464 3168.442 L 1133.595 3168.442 L 1133.595 3349.362 L 2824.464 3349.362 L 2824.464 3168.442" style="fill: rgb(225, 193, 30); fill-opacity: 1; fill-rule: nonzero; stroke: none;" id="path170"/>
      <g id="g172" style="" transform="matrix(1.031709, 0, 0, 1, -2958.638672, 1279.072266)">
        <g id="g174" clip-path="url(#clipPath178)">
          <path d="m 4170.93,1825.9 h -141.02 l 121.38,277.66 H 4292.3 L 4170.93,1825.9" style="fill:#ffffff;fill-opacity:1;fill-rule:nonzero;stroke:none" id="path180"/>
          <path d="m 4471.64,1825.9 h -141.01 l 121.38,277.66 h 141.01 L 4471.64,1825.9" style="fill:#ffffff;fill-opacity:1;fill-rule:nonzero;stroke:none" id="path182"/>
          <path d="m 4772.36,1825.9 h -141.01 l 121.37,277.66 h 141.02 L 4772.36,1825.9" style="fill:#ffffff;fill-opacity:1;fill-rule:nonzero;stroke:none" id="path184"/>
          <path d="m 5073.09,1825.9 h -141.02 l 121.38,277.66 h 141.01 L 5073.09,1825.9" style="fill:#ffffff;fill-opacity:1;fill-rule:nonzero;stroke:none" id="path186"/>
          <path d="m 5373.8,1825.9 h -141.02 l 121.39,277.66 h 141.01 L 5373.8,1825.9" style="fill:#ffffff;fill-opacity:1;fill-rule:nonzero;stroke:none" id="path188"/>
        </g>
      </g>
      <path d="M 997.833 3661.732 L 964.777 3660.502 L 945.432 3666.452 C 936.549 3669.182 926.851 3665.912 921.651 3658.412 L 919.217 3654.912 L 1015.836 3603.172 L 1034.531 3642.022 L 997.833 3661.732" style="fill: rgb(38, 32, 64); fill-opacity: 1; fill-rule: nonzero; stroke: none;" id="path190"/>
      <path d="M 1015.867 3602.362 L 918.484 3654.502 L 921.889 3660.472 C 922.559 3661.642 924.097 3662.072 925.304 3661.432 L 1020.499 3610.462 L 1015.867 3602.362" style="fill: rgb(38, 32, 64); fill-opacity: 1; fill-rule: nonzero; stroke: none;" id="path192"/>
      <path d="M 1034.531 3642.022 L 1060.055 3684.842 L 1034.531 3729.042 L 997.833 3661.732 L 1034.531 3642.022" style="fill: rgb(226, 94, 104); fill-opacity: 1; fill-rule: nonzero; stroke: none;" id="path194"/>
      <path d="M 1234.538 3888.332 C 1234.538 3888.332 1096.825 3926.632 1083.568 3890.592 C 1070.31 3854.552 989.971 3695.112 989.971 3695.112 L 1049.934 3664.792 L 1139.868 3816.202 L 1260.877 3826.402 L 1234.538 3888.332" style="fill: rgb(38, 32, 64); fill-opacity: 1; fill-rule: nonzero; stroke: none;" id="path196"/>
      <path d="M 1122.587 3613.142 L 1095.629 3596.492 L 1075.737 3592.602 C 1066.586 3590.812 1059.756 3583.392 1058.951 3574.392 L 1058.57 3570.182 L 1168.962 3570.352 L 1165.867 3613.102 L 1122.587 3613.142" style="fill: rgb(38, 32, 64); fill-opacity: 1; fill-rule: nonzero; stroke: none;" id="path198"/>
      <path d="M 1169.396 3569.642 L 1058.136 3569.482 L 1058.126 3576.302 C 1058.126 3577.652 1059.25 3578.742 1060.643 3578.742 L 1169.385 3578.912 L 1169.396 3569.642" style="fill: rgb(38, 32, 64); fill-opacity: 1; fill-rule: nonzero; stroke: none;" id="path200"/>
      <path d="M 1165.867 3613.102 L 1169.396 3684.842 L 1125.424 3689.642 L 1122.587 3613.142 L 1165.867 3613.102" style="fill: rgb(226, 94, 104); fill-opacity: 1; fill-rule: nonzero; stroke: none;" id="path202"/>
      <path d="M 1253.129 3894.462 L 1123.34 3888.722 C 1123.34 3888.722 1104.677 3887.732 1105.925 3845.382 C 1107.184 3803.032 1107.06 3632.602 1107.06 3632.602 L 1169.396 3630.512 L 1181.322 3809.032 L 1311.245 3810.582 C 1338.637 3810.912 1364.11 3826.132 1374.943 3850.512 C 1379.091 3859.832 1381.082 3870.292 1378.523 3881.282 L 1253.129 3894.462" style="fill: rgb(52, 46, 102); fill-opacity: 1; fill-rule: nonzero; stroke: none;" id="path204"/>
      <path d="M 1129.964 3919.832 C 1129.995 3907.892 1121.638 3906.082 1109.319 3906.062 C 1097.011 3906.032 1085.384 3907.802 1085.363 3919.742 C 1085.332 3931.682 1095.309 3941.382 1107.617 3941.402 C 1119.925 3941.432 1129.943 3931.772 1129.964 3919.832" style="fill: rgb(214, 150, 142); fill-opacity: 1; fill-rule: nonzero; stroke: none;" id="path206"/>
      <path d="M 1145.635 3907.632 L 1119.843 3907.582 C 1113.116 3907.562 1107.596 3912.892 1107.586 3919.422 C 1107.565 3925.952 1113.064 3931.302 1119.812 3931.312 L 1145.584 3931.362 C 1152.311 3931.372 1157.83 3926.042 1157.841 3919.522 C 1157.851 3912.992 1152.362 3907.642 1145.635 3907.632" style="fill: rgb(214, 150, 142); fill-opacity: 1; fill-rule: nonzero; stroke: none;" id="path208"/>
      <path d="M 1144.635 3905.092 L 1136.041 3945.982 L 1241.997 3957.172 L 1263.199 4077.172 C 1265.334 4088.082 1281.625 4101.612 1292.881 4099.542 L 1289.641 4100.432 C 1300.887 4098.362 1311.225 4085.692 1309.089 4074.782 L 1288.465 3931.222 C 1286.949 3923.482 1280.903 3917.312 1272.99 3915.442 L 1144.635 3905.092" style="fill: rgb(186, 172, 221); fill-opacity: 1; fill-rule: nonzero; stroke: none;" id="path210"/>
      <path d="M 1356.311 4096.892 C 1358.498 4096.722 1360.644 4096.242 1362.697 4095.472 L 1363.749 4095.072 C 1381.949 4088.182 1394.257 4069.262 1395.082 4051.542 L 1378.523 3881.282 C 1268.718 3882.202 1253.129 3894.462 1253.129 3894.462 L 1261.858 4068.632 C 1263.188 4085.052 1270.968 4100.512 1290.271 4102.062 L 1356.311 4096.892" style="fill: rgb(204, 192, 229); fill-opacity: 1; fill-rule: nonzero; stroke: none;" id="path212"/>
      <path d="M 1235.405 3906.442 C 1236.251 3894.532 1228.048 3892.192 1215.75 3891.382 C 1203.463 3890.562 1191.743 3891.572 1190.907 3903.482 C 1190.061 3915.392 1199.346 3925.712 1211.624 3926.532 C 1223.911 3927.342 1234.569 3918.352 1235.405 3906.442" style="fill: rgb(226, 94, 104); fill-opacity: 1; fill-rule: nonzero; stroke: none;" id="path214"/>
      <path d="M 1251.871 3895.282 L 1226.15 3893.562 C 1219.444 3893.122 1213.563 3898.082 1213.109 3904.592 C 1212.645 3911.102 1217.762 3916.802 1224.479 3917.242 L 1250.189 3918.952 C 1256.916 3919.402 1262.786 3914.442 1263.25 3907.932 C 1263.704 3901.422 1258.587 3895.722 1251.871 3895.282" style="fill: rgb(226, 94, 104); fill-opacity: 1; fill-rule: nonzero; stroke: none;" id="path216"/>
      <path d="M 1251.045 3892.682 L 1239.676 3932.932 L 1355.145 3950.922 L 1348.573 4055.002 C 1349.966 4066.022 1362.429 4078.412 1373.798 4077.072 C 1385.167 4075.732 1396.351 4063.752 1394.969 4052.732 L 1403.284 3928.032 C 1402.304 3920.202 1396.692 3913.652 1388.944 3911.282 L 1251.045 3892.682" style="fill: rgb(204, 192, 229); fill-opacity: 1; fill-rule: nonzero; stroke: none;" id="path218"/>
      <path d="M 1051.244 4030.962 L 1177.247 4019.452 C 1181.384 4019.072 1184.696 4015.932 1185.181 4011.932 L 1198.407 3901.882 C 1199.047 3896.482 1194.394 3891.872 1188.813 3892.382 L 1060.726 3904.092 C 1056.527 3904.472 1053.194 3907.692 1052.782 3911.762 L 1041.639 4021.622 C 1041.103 4026.972 1045.735 4031.472 1051.244 4030.962" style="fill: rgb(25, 24, 31); fill-opacity: 1; fill-rule: nonzero; stroke: none;" id="path220"/>
      <path d="M 1043.991 4031.632 L 1169.994 4020.112 C 1174.131 4019.732 1177.443 4016.602 1177.918 4012.592 L 1191.144 3902.542 C 1191.794 3897.142 1187.141 3892.532 1181.56 3893.042 L 1053.463 3904.752 C 1049.264 3905.142 1045.931 3908.352 1045.518 3912.432 L 1034.386 4022.282 C 1033.85 4027.632 1038.472 4032.132 1043.991 4031.632" style="fill: rgb(36, 40, 55); fill-opacity: 1; fill-rule: nonzero; stroke: none;" id="path222"/>
      <path d="M 1194.91 3901.122 L 1280.996 3893.252 C 1283.627 3893.012 1285.546 3890.752 1285.308 3888.212 C 1285.05 3885.662 1282.729 3883.802 1280.108 3884.042 L 1188.813 3892.062 L 1194.91 3901.122" style="fill: rgb(25, 24, 31); fill-opacity: 1; fill-rule: nonzero; stroke: none;" id="path224"/>
      <path d="M 1116.211 3964.862 C 1115.499 3957.522 1108.762 3952.122 1101.189 3952.812 C 1093.606 3953.512 1088.035 3960.022 1088.757 3967.372 C 1089.459 3974.722 1096.196 3980.122 1103.779 3979.422 C 1111.352 3978.732 1116.923 3972.212 1116.211 3964.862" style="fill: rgb(255, 255, 255); fill-opacity: 1; fill-rule: nonzero; stroke: none;" id="path226"/>
      <path d="M 1344.57 4031.002 L 1347.407 3952.752 L 1239.676 3932.932 L 1334.614 3961.672 L 1344.57 4031.002" style="fill: rgb(186, 172, 221); fill-opacity: 1; fill-rule: nonzero; stroke: none;" id="path228"/>
      <path d="M 1287.434 4107.272 L 1294.625 4088.542 C 1297.225 4081.792 1303.673 4077.132 1311.091 4076.642 C 1325.184 4075.722 1335.315 4089.542 1329.785 4102.142 L 1317.157 4130.912 L 1287.434 4107.272" style="fill: rgb(226, 94, 104); fill-opacity: 1; fill-rule: nonzero; stroke: none;" id="path230"/>
      <path d="M 1293.841 4090.592 C 1293.841 4090.592 1329.321 4097.092 1324.101 4127.162 C 1318.89 4157.232 1285.525 4133.772 1285.525 4133.772 L 1288.785 4103.752 L 1293.841 4090.592" style="fill: rgb(216, 74, 85); fill-opacity: 1; fill-rule: nonzero; stroke: none;" id="path232"/>
      <path d="M 1239.098 4180.572 C 1226.078 4153.582 1238.097 4121.462 1265.953 4108.852 C 1293.799 4096.222 1326.927 4107.882 1339.948 4134.872 C 1352.968 4161.862 1340.948 4193.972 1313.103 4206.602 C 1285.257 4219.212 1252.129 4207.562 1239.098 4180.572" style="fill: rgb(226, 94, 104); fill-opacity: 1; fill-rule: nonzero; stroke: none;" id="path234"/>
      <g id="g236" style="" transform="matrix(1.031709, 0, 0, 1, -2958.638672, 1279.072266)">
        <g id="g238" clip-path="url(#clipPath242)">
          <path d="m 4137.61,2868.01 c 0,0 -8.5,-43.21 23.27,-44.16 31.77,-0.94 14.47,81.07 14.47,81.07 l -50.27,50.59 -76.94,-18.93 7.64,-49.74 c 0,0 12.24,-6.49 78.37,4.41 l 3.46,-23.24" style="fill:#342e66;fill-opacity:1;fill-rule:nonzero;stroke:none" id="path244"/>
          <path d="m 4106.21,2901.83 25.26,-36.96 21.79,24.07 z" style="fill:#342e66;fill-opacity:1;fill-rule:nonzero;stroke:none" id="path246"/>
        </g>
      </g>
      <path d="M 1301.403 4157.112 C 1297.73 4149.492 1301.124 4140.412 1308.996 4136.842 C 1316.868 4133.272 1326.236 4136.572 1329.919 4144.192 C 1333.592 4151.832 1330.198 4160.902 1322.326 4164.472 C 1314.454 4168.042 1305.096 4164.752 1301.403 4157.112" style="fill: rgb(226, 94, 104); fill-opacity: 1; fill-rule: nonzero; stroke: none;" id="path248"/>
      <path d="M 1228.275 4166.722 C 1228.275 4166.722 1216.246 4209.252 1244.69 4235.572 C 1268.151 4257.272 1306.5 4255.872 1327.32 4231.772 C 1337.1 4220.452 1344.962 4203.412 1345.684 4177.792 L 1228.275 4166.722" style="fill: rgb(225, 193, 30); fill-opacity: 1; fill-rule: nonzero; stroke: none;" id="path250"/>
      <path d="M 1235.766 4167.452 L 1235.425 4194.002 L 1235.425 4194.142 C 1235.425 4200.052 1240.223 4204.942 1246.33 4205.222 L 1246.877 4205.232 C 1252.727 4205.232 1257.679 4200.942 1258.267 4195.242 L 1261.001 4168.752 L 1263.88 4169.032 L 1261.146 4195.522 C 1260.403 4202.662 1254.202 4208.032 1246.877 4208.032 L 1246.196 4208.012 C 1238.551 4207.672 1232.536 4201.552 1232.536 4194.142 L 1232.536 4193.962 L 1232.877 4167.422 L 1235.766 4167.452" style="fill: rgb(227, 152, 31); fill-opacity: 1; fill-rule: nonzero; stroke: none;" id="path252"/>
      <path d="M 1345.137 4183.372 L 1217.401 4171.492 C 1214.224 4171.192 1211.892 4168.462 1212.191 4165.382 C 1212.501 4162.302 1215.327 4160.042 1218.505 4160.332 L 1346.241 4172.212 C 1349.419 4172.512 1351.74 4175.252 1351.441 4178.332 C 1351.131 4181.412 1348.315 4183.672 1345.137 4183.372" style="fill: rgb(255, 255, 255); fill-opacity: 1; fill-rule: nonzero; stroke: none;" id="path254"/>
      <path d="M 2508.616 2743.252 L 2537.246 2716.362 L 2504.613 2699.342 L 2476.644 2725.892 L 2508.616 2743.252" style="fill: rgb(226, 94, 104); fill-opacity: 1; fill-rule: nonzero; stroke: none;" id="path256"/>
      <path d="M 2307.072 2944.092 L 2326.2 2862.022 C 2330.038 2845.582 2337.404 2829.792 2348 2815.322 L 2473.951 2705.642 L 2523.762 2744.972 L 2416.216 2855.352 L 2376.815 3000.902 L 2307.072 2944.092" style="fill: rgb(38, 32, 64); fill-opacity: 1; fill-rule: nonzero; stroke: none;" id="path258"/>
      <path d="M 2503.654 2700.122 L 2493.337 2668.222 L 2481.555 2652.332 C 2476.128 2645.022 2476.334 2635.132 2482.04 2628.032 L 2484.701 2624.712 L 2565.082 2697.292 L 2532.944 2726.432 L 2503.654 2700.122" style="fill: rgb(38, 32, 64); fill-opacity: 1; fill-rule: nonzero; stroke: none;" id="path260"/>
      <path d="M 2565.887 2697.062 L 2484.887 2623.922 L 2478.398 2630.662 L 2559.397 2703.812 L 2565.887 2697.062" style="fill: rgb(38, 32, 64); fill-opacity: 1; fill-rule: nonzero; stroke: none;" id="path262"/>
      <path d="M 2233.222 2693.322 L 2222.482 2658.562 L 2185.588 2668.152 L 2196.37 2702.282 L 2233.222 2693.322" style="fill: rgb(226, 94, 104); fill-opacity: 1; fill-rule: nonzero; stroke: none;" id="path264"/>
      <path d="M 2282.662 3035.642 L 2179.357 2697.142 L 2244.54 2681.372 L 2302.697 2851.062 L 2374.143 2962.082 C 2377.765 2967.042 2381.334 2972.232 2384.347 2977.592 C 2390.073 2987.752 2392.642 2998.832 2392.518 3009.942 L 2392.27 3031.962 L 2282.662 3035.642" style="fill: rgb(52, 46, 102); fill-opacity: 1; fill-rule: nonzero; stroke: none;" id="path266"/>
      <path d="M 2187.724 2671.492 L 2155.122 2659.822 L 2134.787 2659.142 C 2125.45 2658.832 2117.433 2652.582 2115.112 2643.802 L 2114.029 2639.702 L 2223.215 2622.292 L 2227.403 2665.062 L 2187.724 2671.492" style="fill: rgb(38, 32, 64); fill-opacity: 1; fill-rule: nonzero; stroke: none;" id="path268"/>
      <path d="M 2223.524 2621.532 L 2113.482 2639.082 L 2115.03 2648.242 L 2225.082 2630.702 L 2223.524 2621.532" style="fill: rgb(38, 32, 64); fill-opacity: 1; fill-rule: nonzero; stroke: none;" id="path270"/>
      <path d="M 2138.47 3379.452 L 2096.717 3316.302 L 2116.732 3302.382 L 2159.94 3369.192 L 2138.47 3379.452" style="fill: rgb(60, 72, 165); fill-opacity: 1; fill-rule: nonzero; stroke: none;" id="path272"/>
      <path d="M 2084.243 3484.102 C 2084.243 3484.102 2103.536 3405.822 2201.311 3375.012 C 2204.128 3374.132 2206.274 3371.832 2206.666 3368.982 C 2207.914 3359.922 2207.925 3340.332 2186.31 3334.522 C 2184.257 3333.972 2181.987 3334.372 2180.192 3335.462 C 2165.243 3344.542 2091.692 3386.222 2020.298 3374.192 L 2084.243 3484.102" style="fill: rgb(66, 85, 174); fill-opacity: 1; fill-rule: nonzero; stroke: none;" id="path274"/>
      <path d="M 2084.243 3484.102 C 2084.243 3484.102 2066.323 3406.022 2020.298 3374.192 C 2020.298 3374.192 2026.787 3442.642 2084.243 3484.102" style="fill: rgb(60, 72, 165); fill-opacity: 1; fill-rule: nonzero; stroke: none;" id="path276"/>
      <path d="M 2083.108 3320.402 C 2080.086 3306.042 2092.28 3288.512 2107.106 3285.572 C 2121.921 3282.632 2136.396 3291.902 2139.429 3306.262 C 2142.463 3320.632 2130.247 3338.172 2115.432 3341.102 C 2100.606 3344.042 2086.142 3334.772 2083.108 3320.402" style="fill: rgb(226, 94, 104); fill-opacity: 1; fill-rule: nonzero; stroke: none;" id="path278"/>
      <path d="M 2161.56 3278.232 L 2132.61 3307.542 L 2113.709 3284.992 L 2161.56 3250.992" style="fill: rgb(226, 94, 104); fill-opacity: 1; fill-rule: nonzero; stroke: none;" id="path280"/>
      <path d="M 2156.958 3305.342 L 2126.358 3261.242 L 2210.019 3187.022 C 2215.136 3185.602 2220.46 3185.112 2225.753 3185.542 L 2336.218 3199.422 C 2353.623 3200.222 2367.066 3214.552 2366.24 3231.422 C 2365.415 3248.302 2368.748 3272.712 2351.353 3271.912 L 2222.998 3246.362 L 2156.958 3305.342" style="fill: rgb(186, 172, 221); fill-opacity: 1; fill-rule: nonzero; stroke: none;" id="path282"/>
      <path d="M 2404.713 3204.162 C 2407.664 3227.552 2396.707 3250.712 2376.238 3263.422 C 2367.035 3269.132 2357.915 3272.992 2351.353 3271.912 C 2329.316 3268.302 2306.67 3258.632 2296.961 3229.802 C 2280.485 3180.782 2275.77 3035.862 2275.77 3035.862 L 2394.189 3031.962 L 2404.713 3204.162" style="fill: rgb(204, 192, 229); fill-opacity: 1; fill-rule: nonzero; stroke: none;" id="path284"/>
      <path d="M 2360.999 3200.512 L 2396.604 3073.692 L 2403.805 3181.282 L 2360.999 3200.512 Z" style="fill: rgb(186, 172, 221); fill-opacity: 1; fill-rule: nonzero; stroke: none;" id="path286"/>
      <path d="M 2506.14 2950.252 C 2517.334 2960.122 2518.149 2981.252 2507.966 2992.102 C 2497.794 3002.952 2480.461 3003.742 2469.277 2993.882 C 2458.073 2984.022 2457.258 2962.882 2467.441 2952.042 C 2477.613 2941.192 2494.936 2940.382 2506.14 2950.252" style="fill: rgb(226, 94, 104); fill-opacity: 1; fill-rule: nonzero; stroke: none;" id="path288"/>
      <path d="M 2452.409 3040.592 L 2473.992 2988.952 L 2502.994 2996.342 L 2485.062 3051.172" style="fill: rgb(226, 94, 104); fill-opacity: 1; fill-rule: nonzero; stroke: none;" id="path290"/>
      <path d="M 2453.781 3000.752 L 2513.073 3013.382 L 2472.868 3146.692 C 2471.382 3151.632 2468.968 3156.272 2465.78 3160.382 L 2391.94 3249.462 C 2381.964 3263.302 2365.157 3260.832 2350.858 3251.172 C 2336.569 3241.502 2333.071 3222.442 2343.037 3208.582 L 2414.143 3125.722 L 2453.781 3000.752" style="fill: rgb(204, 192, 229); fill-opacity: 1; fill-rule: nonzero; stroke: none;" id="path292"/>
      <path d="M 2323.621 3289.352 L 2325.87 3269.252 C 2326.685 3262.012 2331.802 3255.882 2338.962 3253.622 C 2352.529 3249.312 2366.024 3260.402 2363.837 3274.102 L 2358.843 3305.362 L 2323.621 3289.352" style="fill: rgb(226, 94, 104); fill-opacity: 1; fill-rule: nonzero; stroke: none;" id="path294"/>
      <path d="M 2325.632 3271.452 C 2325.632 3271.452 2362.196 3272.612 2364.817 3303.342 C 2367.427 3334.082 2328.573 3315.792 2328.573 3315.792 L 2324.044 3285.582 L 2325.632 3271.452" style="fill: rgb(216, 74, 85); fill-opacity: 1; fill-rule: nonzero; stroke: none;" id="path296"/>
      <path d="M 2295.083 3372.872 C 2275.378 3349.552 2278.917 3315.172 2302.976 3296.082 C 2327.025 3276.992 2362.506 3280.402 2382.201 3303.722 C 2401.896 3327.052 2398.368 3361.422 2374.308 3380.512 C 2350.249 3399.612 2314.789 3396.192 2295.083 3372.872" style="fill: rgb(226, 94, 104); fill-opacity: 1; fill-rule: nonzero; stroke: none;" id="path298"/>
      <g id="g300" style="" transform="matrix(1.031709, 0, 0, 1, -2958.638672, 1279.072266)">
        <g id="g302" clip-path="url(#clipPath306)">
          <path d="m 5151.44,2043.82 c 0,0 -19.1,-40.25 11.81,-49.09 30.9,-8.83 34.39,75.87 34.39,75.87 l -36.69,62.11 -80.14,0.61 -4.9,-50.67 c 0,0 10.38,-9.41 77.92,-15.19 l -2.39,-23.64" style="fill:#342e66;fill-opacity:1;fill-rule:nonzero;stroke:none" id="path308"/>
          <path d="m 5129.08,2084.79 15.57,-42.53 27.35,18.18 z" style="fill:#342e66;fill-opacity:1;fill-rule:nonzero;stroke:none" id="path310"/>
        </g>
      </g>
      <path d="M 2350.135 3334.842 C 2344.564 3328.252 2345.565 3318.522 2352.364 3313.132 C 2359.173 3307.732 2369.191 3308.702 2374.762 3315.292 C 2380.334 3321.882 2379.333 3331.602 2372.524 3337.002 C 2365.725 3342.402 2355.707 3341.432 2350.135 3334.842" style="fill: rgb(226, 94, 104); fill-opacity: 1; fill-rule: nonzero; stroke: none;" id="path312"/>
      <path d="M 2280.578 3357.232 C 2280.578 3357.232 2277.823 3401.742 2311.632 3422.052 C 2339.519 3438.782 2377.177 3429.632 2392.601 3401.582 C 2399.843 3388.402 2403.949 3369.952 2399.162 3344.452 L 2280.578 3357.232" style="fill: rgb(225, 193, 30); fill-opacity: 1; fill-rule: nonzero; stroke: none;" id="path314"/>
      <path d="M 2288.14 3356.432 L 2293.526 3382.782 C 2294.599 3388.102 2299.427 3391.822 2304.864 3391.822 L 2306.731 3391.672 C 2312.396 3390.792 2316.46 3386.042 2316.46 3380.592 L 2316.399 3379.382 L 2313.407 3352.622 L 2316.306 3352.312 L 2319.298 3379.082 L 2319.38 3380.592 C 2319.38 3387.422 2314.294 3393.352 2307.206 3394.472 L 2304.864 3394.652 C 2298.044 3394.652 2292.009 3390.002 2290.657 3383.332 L 2285.272 3356.982 L 2288.14 3356.432" style="fill: rgb(227, 152, 31); fill-opacity: 1; fill-rule: nonzero; stroke: none;" id="path316"/>
      <path d="M 2399.812 3350.082 L 2270.838 3364.142 C 2267.63 3364.492 2264.731 3362.252 2264.369 3359.142 C 2264.008 3356.032 2266.319 3353.232 2269.528 3352.882 L 2398.502 3338.822 C 2401.711 3338.472 2404.61 3340.702 2404.971 3343.812 C 2405.332 3346.922 2403.021 3349.732 2399.812 3350.082" style="fill: rgb(255, 255, 255); fill-opacity: 1; fill-rule: nonzero; stroke: none;" id="path318"/>
      <path d="M 3176.751 3030.342 L 3043.31 2902.832 L 3062.5 2883.972 L 3195.941 3011.482" style="fill: rgb(63, 79, 170); fill-opacity: 1; fill-rule: nonzero; stroke: none;" id="path320"/>
      <path d="M 3176.751 3166.602 L 3043.31 3039.092 L 3062.5 3020.232 L 3195.941 3147.742" style="fill: rgb(63, 79, 170); fill-opacity: 1; fill-rule: nonzero; stroke: none;" id="path322"/>
      <path d="M 3176.751 3302.862 L 3043.31 3175.352 L 3062.5 3156.492 L 3195.941 3284.002" style="fill: rgb(63, 79, 170); fill-opacity: 1; fill-rule: nonzero; stroke: none;" id="path324"/>
      <path d="M 3176.751 3439.122 L 3043.31 3311.612 L 3062.5 3292.752 L 3195.941 3420.262" style="fill: rgb(63, 79, 170); fill-opacity: 1; fill-rule: nonzero; stroke: none;" id="path326"/>
      <path d="M 3176.751 3575.382 L 3043.31 3447.872 L 3062.5 3429.012 L 3195.941 3556.522" style="fill: rgb(63, 79, 170); fill-opacity: 1; fill-rule: nonzero; stroke: none;" id="path328"/>
      <path d="M 3176.751 3711.642 L 3043.31 3584.132 L 3062.5 3565.272 L 3195.941 3692.782" style="fill: rgb(63, 79, 170); fill-opacity: 1; fill-rule: nonzero; stroke: none;" id="path330"/>
      <path d="M 3176.751 3847.902 L 3043.31 3720.392 L 3062.5 3701.532 L 3195.941 3829.042" style="fill: rgb(63, 79, 170); fill-opacity: 1; fill-rule: nonzero; stroke: none;" id="path332"/>
      <path d="M 3176.751 3984.162 L 3043.31 3856.652 L 3062.5 3837.792 L 3195.941 3965.302" style="fill: rgb(63, 79, 170); fill-opacity: 1; fill-rule: nonzero; stroke: none;" id="path334"/>
      <path d="M 3176.751 4120.422 L 3043.31 3992.912 L 3062.5 3974.052 L 3195.941 4101.562" style="fill: rgb(63, 79, 170); fill-opacity: 1; fill-rule: nonzero; stroke: none;" id="path336"/>
      <path d="M 3176.751 4256.682 L 3043.31 4129.172 L 3062.5 4110.312 L 3195.941 4237.822" style="fill: rgb(63, 79, 170); fill-opacity: 1; fill-rule: nonzero; stroke: none;" id="path338"/>
      <path d="M 3176.751 4392.942 L 3043.31 4265.432 L 3062.5 4246.572 L 3195.941 4374.082" style="fill: rgb(63, 79, 170); fill-opacity: 1; fill-rule: nonzero; stroke: none;" id="path340"/>
      <path d="M 3052.905 3016.422 L 3186.346 3016.422 L 3186.346 3042.91 L 3052.905 3042.91 L 3052.905 3016.422 Z" style="fill: rgb(63, 79, 170); fill-opacity: 1; fill-rule: nonzero; stroke: none;" id="path342"/>
      <path d="M 3052.905 3152.682 L 3186.346 3152.682 L 3186.346 3179.174 L 3052.905 3179.174 L 3052.905 3152.682 Z" style="fill: rgb(63, 79, 170); fill-opacity: 1; fill-rule: nonzero; stroke: none;" id="path344"/>
      <path d="M 3052.905 3288.942 L 3186.346 3288.942 L 3186.346 3315.43 L 3052.905 3315.43 L 3052.905 3288.942 Z" style="fill: rgb(63, 79, 170); fill-opacity: 1; fill-rule: nonzero; stroke: none;" id="path346"/>
      <path d="M 3052.905 3425.202 L 3186.346 3425.202 L 3186.346 3451.694 L 3052.905 3451.694 L 3052.905 3425.202 Z" style="fill: rgb(63, 79, 170); fill-opacity: 1; fill-rule: nonzero; stroke: none;" id="path348"/>
      <path d="M 3052.905 3561.462 L 3186.346 3561.462 L 3186.346 3587.95 L 3052.905 3587.95 L 3052.905 3561.462 Z" style="fill: rgb(63, 79, 170); fill-opacity: 1; fill-rule: nonzero; stroke: none;" id="path350"/>
      <path d="M 3052.905 3697.722 L 3186.346 3697.722 L 3186.346 3724.214 L 3052.905 3724.214 L 3052.905 3697.722 Z" style="fill: rgb(63, 79, 170); fill-opacity: 1; fill-rule: nonzero; stroke: none;" id="path352"/>
      <path d="M 3052.905 3833.982 L 3186.346 3833.982 L 3186.346 3860.47 L 3052.905 3860.47 L 3052.905 3833.982 Z" style="fill: rgb(63, 79, 170); fill-opacity: 1; fill-rule: nonzero; stroke: none;" id="path354"/>
      <path d="M 3052.905 3970.242 L 3186.346 3970.242 L 3186.346 3996.73 L 3052.905 3996.73 L 3052.905 3970.242 Z" style="fill: rgb(63, 79, 170); fill-opacity: 1; fill-rule: nonzero; stroke: none;" id="path356"/>
      <path d="M 3052.905 4106.502 L 3186.346 4106.502 L 3186.346 4132.994 L 3052.905 4132.994 L 3052.905 4106.502 Z" style="fill: rgb(63, 79, 170); fill-opacity: 1; fill-rule: nonzero; stroke: none;" id="path358"/>
      <path d="M 3052.905 4242.762 L 3186.346 4242.762 L 3186.346 4269.243 L 3052.905 4269.243 L 3052.905 4242.762 Z" style="fill: rgb(63, 79, 170); fill-opacity: 1; fill-rule: nonzero; stroke: none;" id="path360"/>
      <path d="M 3039.235 2856.482 L 3066.563 2856.482 L 3066.563 4361.712 L 3039.235 4361.712 L 3039.235 2856.482 Z" style="fill: rgb(75, 91, 178); fill-opacity: 1; fill-rule: nonzero; stroke: none;" id="path362"/>
      <path d="M 3172.686 2856.482 L 3200.019 2856.482 L 3200.019 4361.712 L 3172.686 4361.712 L 3172.686 2856.482 Z" style="fill: rgb(75, 91, 178); fill-opacity: 1; fill-rule: nonzero; stroke: none;" id="path364"/>
      <path d="M 3249.858 2625.792 L 2984.111 2625.792 L 2984.111 2893.402 L 3249.858 2893.402 L 3249.858 2625.792" style="fill: rgb(52, 46, 102); fill-opacity: 1; fill-rule: nonzero; stroke: none;" id="path366"/>
      <path d="M 3186.707 4361.712 L 3047.819 4361.712 C 3023.305 4361.712 3003.445 4380.972 3003.445 4404.722 L 3003.445 4573.582 C 3003.445 4597.332 3023.305 4616.592 3047.819 4616.592 L 3186.707 4616.592 C 3211.21 4616.592 3231.081 4597.332 3231.081 4573.582 L 3231.081 4404.722 C 3231.081 4380.972 3211.21 4361.712 3186.707 4361.712" style="fill: rgb(63, 79, 170); fill-opacity: 1; fill-rule: nonzero; stroke: none;" id="path368"/>
      <path d="M 3113.59 4435.892 L 3024.192 4435.892 L 3024.192 4555.132 L 3113.59 4555.132 C 3132.151 4555.132 3147.203 4540.542 3147.203 4522.542 L 3147.203 4468.482 C 3147.203 4450.482 3132.151 4435.892 3113.59 4435.892" style="fill: rgb(57, 71, 164); fill-opacity: 1; fill-rule: nonzero; stroke: none;" id="path370"/>
      <path d="M 2161.952 4344.292 L 2268.703 4043.722 L 2289.801 4050.752 L 2183.05 4351.332" style="fill: rgb(52, 46, 102); fill-opacity: 1; fill-rule: nonzero; stroke: none;" id="path372"/>
      <path d="M 2089.288 4389.942 L 1881.12 4117.422 L 1899.052 4104.562 L 2107.209 4377.082" style="fill: rgb(52, 46, 102); fill-opacity: 1; fill-rule: nonzero; stroke: none;" id="path374"/>
      <path d="M 2160.414 4249.792 L 2375.516 3977.152 C 2399.183 3947.152 2393.282 3904.242 2362.33 3881.292 L 2081.045 3672.812 C 2050.094 3649.872 2005.823 3655.592 1982.156 3685.582 L 1767.044 3958.232 C 1743.377 3988.232 1749.278 4031.142 1780.23 4054.082 L 2061.525 4262.582 C 2092.466 4285.522 2136.747 4279.792 2160.414 4249.792" style="fill: rgb(225, 193, 30); fill-opacity: 1; fill-rule: nonzero; stroke: none;" id="path376"/>
      <path d="M 2144.217 4198.512 L 2139.646 4195.122 L 2315.645 3972.052 C 2322.857 3962.902 2326.324 3952.172 2326.334 3941.492 C 2326.324 3926.322 2319.308 3911.362 2305.927 3901.432 L 2075.773 3730.842 C 2066.333 3723.852 2055.273 3720.482 2044.244 3720.482 C 2028.593 3720.492 2013.159 3727.282 2002.914 3740.262 L 1826.925 3963.332 C 1819.703 3972.482 1816.236 3983.212 1816.226 3993.892 C 1816.236 4009.072 1823.252 4024.032 1836.633 4033.952 L 2066.787 4204.542 C 2076.227 4211.532 2087.297 4214.902 2098.316 4214.902 C 2113.977 4214.902 2129.401 4208.102 2139.646 4195.122 L 2144.217 4198.512 L 2148.777 4201.892 C 2136.293 4217.712 2117.382 4226.052 2098.316 4226.042 C 2084.883 4226.042 2071.295 4221.912 2059.802 4213.392 L 1829.659 4042.802 C 1813.327 4030.702 1804.733 4012.382 1804.743 3993.892 C 1804.733 3980.872 1809.004 3967.702 1817.794 3956.572 L 1993.783 3733.502 C 2006.267 3717.672 2025.178 3709.342 2044.244 3709.342 C 2057.687 3709.342 2071.264 3713.482 2082.758 3722.002 L 2312.911 3892.582 C 2329.233 3904.682 2337.827 3923.012 2337.817 3941.492 C 2337.827 3954.512 2333.556 3967.682 2324.766 3978.812 L 2148.777 4201.892 L 2144.217 4198.512" style="fill: rgb(52, 46, 102); fill-opacity: 1; fill-rule: nonzero; stroke: none;" id="path378"/>
      <path d="M 2116.794 4092.092 L 2091.919 3921.962 L 2038.631 3928.852 C 2046.514 3986.082 2053.065 4041.712 2060.978 4099.302 L 2116.794 4092.092 Z M 2089.536 3865.952 C 2083.975 3825.472 2020.587 3833.662 2026.158 3874.142 C 2031.781 3914.982 2095.159 3906.792 2089.536 3865.952" style="fill: rgb(52, 46, 102); fill-opacity: 1; fill-rule: nonzero; stroke: none;" id="path380"/>
      <path d="M 2231.293 4408.972 C 2231.293 4361.202 2191.335 4322.472 2142.05 4322.472 C 2092.755 4322.472 2052.807 4361.202 2052.807 4408.972 C 2052.807 4456.742 2092.755 4495.472 2142.05 4495.472 C 2191.335 4495.472 2231.293 4456.742 2231.293 4408.972" style="fill: rgb(52, 46, 102); fill-opacity: 1; fill-rule: nonzero; stroke: none;" id="path382"/>
      <path d="M 2205.149 4408.972 C 2205.149 4375.192 2176.901 4347.812 2142.05 4347.812 C 2107.199 4347.812 2078.94 4375.192 2078.94 4408.972 C 2078.94 4442.752 2107.199 4470.132 2142.05 4470.132 C 2176.901 4470.132 2205.149 4442.752 2205.149 4408.972" style="fill: rgb(62, 56, 133); fill-opacity: 1; fill-rule: nonzero; stroke: none;" id="path384"/>
      <path d="M 2478.336 4616.592 L 2505.664 4616.592 L 2505.664 4799.944 L 2478.336 4799.944 L 2478.336 4616.592 Z" style="fill: rgb(63, 79, 170); fill-opacity: 1; fill-rule: nonzero; stroke: none;" id="path386"/>
      <path d="M 2308.702 4616.592 L 2336.034 4616.592 L 2336.034 4799.944 L 2308.702 4799.944 L 2308.702 4616.592 Z" style="fill: rgb(63, 79, 170); fill-opacity: 1; fill-rule: nonzero; stroke: none;" id="path388"/>
      <path d="M 2647.412 4616.592 L 2674.74 4616.592 L 2674.74 4799.944 L 2647.412 4799.944 L 2647.412 4616.592 Z" style="fill: rgb(63, 79, 170); fill-opacity: 1; fill-rule: nonzero; stroke: none;" id="path390"/>
      <path d="M 2835.276 4616.592 L 2862.604 4616.592 L 2862.604 4799.944 L 2835.276 4799.944 L 2835.276 4616.592 Z" style="fill: rgb(63, 79, 170); fill-opacity: 1; fill-rule: nonzero; stroke: none;" id="path392"/>
      <path d="M 3010.522 4616.592 L 3037.855 4616.592 L 3037.855 4799.944 L 3010.522 4799.944 L 3010.522 4616.592 Z" style="fill: rgb(63, 79, 170); fill-opacity: 1; fill-rule: nonzero; stroke: none;" id="path394"/>
      <path d="M 3192.206 4616.592 L 3219.535 4616.592 L 3219.535 4799.944 L 3192.206 4799.944 L 3192.206 4616.592 Z" style="fill: rgb(63, 79, 170); fill-opacity: 1; fill-rule: nonzero; stroke: none;" id="path396"/>
      <path d="M 3370.682 4616.592 L 3398.014 4616.592 L 3398.014 4799.944 L 3370.682 4799.944 L 3370.682 4616.592 Z" style="fill: rgb(63, 79, 170); fill-opacity: 1; fill-rule: nonzero; stroke: none;" id="path398"/>
      <path d="M 2323.466 4607.502 L 2501.941 4790.852 L 2482.06 4809.022 L 2303.585 4625.682" style="fill: rgb(63, 79, 170); fill-opacity: 1; fill-rule: nonzero; stroke: none;" id="path400"/>
      <path d="M 2501.941 4607.502 L 2680.406 4790.852 L 2660.525 4809.022 L 2482.06 4625.682" style="fill: rgb(63, 79, 170); fill-opacity: 1; fill-rule: nonzero; stroke: none;" id="path402"/>
      <path d="M 2680.406 4607.502 L 2858.882 4790.852 L 2839.001 4809.022 L 2660.525 4625.682" style="fill: rgb(63, 79, 170); fill-opacity: 1; fill-rule: nonzero; stroke: none;" id="path404"/>
      <path d="M 2858.882 4607.502 L 3037.336 4790.852 L 3017.466 4809.022 L 2839.001 4625.682" style="fill: rgb(63, 79, 170); fill-opacity: 1; fill-rule: nonzero; stroke: none;" id="path406"/>
      <path d="M 3037.336 4607.502 L 3215.812 4790.852 L 3195.941 4809.022 L 3017.466 4625.682" style="fill: rgb(63, 79, 170); fill-opacity: 1; fill-rule: nonzero; stroke: none;" id="path408"/>
      <path d="M 3215.812 4607.502 L 3394.287 4790.852 L 3374.406 4809.022 L 3195.941 4625.682" style="fill: rgb(63, 79, 170); fill-opacity: 1; fill-rule: nonzero; stroke: none;" id="path410"/>
      <path d="M 2142.05 4616.592 L 2142.05 4603.342 L 3597.152 4603.342 C 3602.713 4603.342 3607.738 4606.622 3609.822 4611.632 C 3611.906 4616.632 3610.647 4622.372 3606.644 4626.112 L 3410.712 4809.462 C 3408.164 4811.852 3404.769 4813.182 3401.22 4813.182 L 2292.566 4813.182 C 2288.419 4813.182 2284.457 4811.332 2281.878 4808.182 L 2131.351 4624.832 C 2128.101 4620.872 2127.462 4615.402 2129.742 4610.832 C 2132.012 4606.272 2136.819 4603.342 2142.05 4603.342 L 2142.05 4616.592 L 2152.739 4608.342 L 2299.159 4786.692 L 3395.701 4786.692 L 3563.322 4629.832 L 2142.05 4629.832 L 2142.05 4616.592 L 2152.739 4608.342 L 2142.05 4616.592" style="fill: rgb(75, 91, 178); fill-opacity: 1; fill-rule: nonzero; stroke: none;" id="path412"/>
      <path d="M 2128.38 4616.592 L 2128.38 4408.972 C 2128.38 4401.652 2134.498 4395.722 2142.05 4395.722 C 2149.592 4395.722 2155.71 4401.652 2155.71 4408.972 L 2155.71 4616.592 C 2155.71 4623.902 2149.592 4629.832 2142.05 4629.832 C 2134.498 4629.832 2128.38 4623.902 2128.38 4616.592" style="fill: rgb(75, 91, 178); fill-opacity: 1; fill-rule: nonzero; stroke: none;" id="path414"/>
      <path d="M 1372.756 2650.562 L 1474.606 2905.722 C 1479.466 2917.882 1497.232 2917.882 1502.081 2905.722 L 1603.931 2650.562 L 1372.756 2650.562" style="fill: rgb(225, 193, 30); fill-opacity: 1; fill-rule: nonzero; stroke: none;" id="path416"/>
      <g id="g418" style="" transform="matrix(1.031709, 0, 0, 1, -2958.638672, 1279.072266)">
        <g id="g420" clip-path="url(#clipPath424)">
          <path d="m 4396.43,1517.63 h -175.29 v 54.15 h 175.29 v -54.15" style="fill:#f8f7f7;fill-opacity:1;fill-rule:nonzero;stroke:none" id="path426"/>
          <path d="m 4409.82,1415.28 h -198.26 v 54.16 h 198.26 v -54.16" style="fill:#f8f7f7;fill-opacity:1;fill-rule:nonzero;stroke:none" id="path428"/>
        </g>
      </g>
      <path d="M 1623.719 2629.062 L 1354.134 2629.062 L 1354.134 2650.562 L 1623.719 2650.562 L 1623.719 2629.062" style="fill: rgb(211, 181, 32); fill-opacity: 1; fill-rule: nonzero; stroke: none;" id="path430"/>
      <path d="M 2851.784 2649.772 L 2953.644 2904.932 C 2958.493 2917.092 2976.249 2917.092 2981.108 2904.932 L 3082.969 2649.772 L 2851.784 2649.772" style="fill: rgb(225, 193, 30); fill-opacity: 1; fill-rule: nonzero; stroke: none;" id="path432"/>
      <g id="g434" style="" transform="matrix(1.031709, 0, 0, 1, -2958.638672, 1279.072266)">
        <g id="g436" clip-path="url(#clipPath440)">
          <path d="m 5830,1516.84 h -175.29 v 54.15 H 5830 v -54.15" style="fill:#f8f7f7;fill-opacity:1;fill-rule:nonzero;stroke:none" id="path442"/>
          <path d="m 5843.39,1414.5 h -198.25 v 54.15 h 198.25 v -54.15" style="fill:#f8f7f7;fill-opacity:1;fill-rule:nonzero;stroke:none" id="path444"/>
        </g>
      </g>
      <path d="M 3102.747 2628.272 L 2833.171 2628.272 L 2833.171 2649.772 L 3102.747 2649.772 L 3102.747 2628.272" style="fill: rgb(211, 181, 32); fill-opacity: 1; fill-rule: nonzero; stroke: none;" id="path446"/>
      <path d="M 1031.054 3077.042 C 1031.054 2963.802 936.353 2872.012 819.533 2872.012 C 702.712 2872.012 608.012 2963.802 608.012 3077.042 C 608.012 3190.262 702.712 3282.052 819.533 3282.052 C 936.353 3282.052 1031.054 3190.262 1031.054 3077.042" style="fill: rgb(75, 91, 178); fill-opacity: 1; fill-rule: nonzero; stroke: none;" id="path448"/>
      <path d="M 813.673 3150.112 L 813.673 2629.062 C 813.673 2625.922 816.293 2623.372 819.533 2623.372 C 822.772 2623.372 825.393 2625.922 825.393 2629.062 L 825.393 3150.112 C 825.393 3153.252 822.772 3155.792 819.533 3155.792 C 816.293 3155.792 813.673 3153.252 813.673 3150.112" style="fill: rgb(63, 79, 170); fill-opacity: 1; fill-rule: nonzero; stroke: none;" id="path450"/>
      <path d="M 732.9 3135.712 L 815.158 3046.302 C 817.315 3043.962 821.018 3043.752 823.433 3045.842 C 825.857 3047.932 826.064 3051.522 823.907 3053.862 L 741.659 3143.282 C 739.503 3145.622 735.789 3145.832 733.375 3143.742 C 730.961 3141.652 730.744 3138.062 732.9 3135.712" style="fill: rgb(63, 79, 170); fill-opacity: 1; fill-rule: nonzero; stroke: none;" id="path452"/>
      <path d="M 888.348 3059.022 C 885.273 3056.042 867.115 3037.772 849.576 3020.112 C 832.078 3002.472 815.303 2985.542 815.303 2985.542 C 813.064 2983.282 813.136 2979.682 815.468 2977.512 C 817.81 2975.332 821.524 2975.412 823.763 2977.672 C 823.773 2977.682 827.952 2981.902 834.338 2988.332 C 853.445 3007.612 892.371 3046.852 896.632 3050.982 C 898.933 3053.202 898.933 3056.802 896.643 3059.022 C 894.352 3061.242 890.638 3061.242 888.348 3059.022" style="fill: rgb(63, 79, 170); fill-opacity: 1; fill-rule: nonzero; stroke: none;" id="path454"/>
      <path d="M 182.855 2618.352 L 3730.924 2618.352 C 3734.153 2618.352 3736.784 2620.902 3736.784 2624.042 C 3736.784 2627.182 3734.153 2629.722 3730.924 2629.722 L 182.855 2629.722 C 179.615 2629.722 176.995 2627.182 176.995 2624.042 C 176.995 2620.902 179.615 2618.352 182.855 2618.352" style="fill: rgb(63, 79, 170); fill-opacity: 1; fill-rule: nonzero; stroke: none;" id="path456"/>
    </g>
  </g>
</svg>